<?xml version="1.0" encoding="UTF-8"?>
<svg id="Ebene_1" data-name="Ebene 1" xmlns="http://www.w3.org/2000/svg" viewBox="0 0 184.42 254.88">
  <defs>
    <style>
      .cls-1 {
        fill: #f2afcf;
        stroke: #f6c4dc;
        stroke-miterlimit: 10;
        stroke-width: 2px;
      }
    </style>
  </defs>
  <path class="cls-1" d="M55.97,46.9c-1.78-1.3-2.93-3.65-3.46-7.06l-6.91,7.27c-4.13-2.3-7.61-3.89-10.44-4.75,1.2-1.2,1.8-2.93,1.8-5.18v-19.44h-3.67v-3.6h3.67v-6.41c0-1.58-.84-3.22-2.52-4.9,1.82.43,3.38,1.18,4.68,2.23l1.01-.07c2.16-2.35,4.49-3.53,6.98-3.53-2.26,1.39-3.38,3.55-3.38,6.48v13.46l9.36-8.21,6.55,6.91c-.67.53-1.56,1.3-2.66,2.3-1.1,1.01-2.42,2.28-3.96,3.82,1.92,1.39,3.26,3.12,4.03,5.18.19.38.4,1.02.61,1.91.22.89.47,2,.76,3.35.43,2.16,1.06,3.79,1.87,4.9l1.37-.72.86.94-6.55,5.11ZM49.35,18.53l-5.69,5.18v8.28l10.15-8.71-4.46-4.75ZM47.91,30.56l-4.25,3.38v5.98l4.32,2.23,4.18-4.32c-.34-2.74-1.75-5.16-4.25-7.27Z"/>
  <path class="cls-1" d="M75.56,46.97c-2.26-1.97-5.66-3.79-10.22-5.47,1.25-1.39,1.87-3.12,1.87-5.18V7.59c0-1.39-.79-2.93-2.38-4.61,1.78.43,3.36,1.2,4.75,2.3l.79-.07c2.21-2.06,4.68-3.29,7.42-3.67-2.35,1.73-3.53,3.91-3.53,6.55v30.31l5.26,3.31,1.73-1.3.86.94-6.55,5.62Z"/>
  <path class="cls-1" d="M90.75,47.12c-3.26-1.73-4.78-4.15-4.54-7.27l.07-1.3v-18.79l-2.09-2.23,5.33-4.39,5.54,4.61-1.8,2.02v19.94c.24.96.91,1.73,2.02,2.3l1.3-.86.72.65-6.55,5.33ZM89.31,9.89h-.94l1.73-7.34h5.33l-6.12,7.34Z"/>
  <path class="cls-1" d="M114.29,43.73c-1.44,1.06-2.88,2.11-4.32,3.17-3.46-2.4-6.77-3.94-9.94-4.61,1.3-1.15,1.94-2.86,1.94-5.11v-18.36c1.63-.67,3.18-1.49,4.64-2.45,1.46-.96,2.87-2.04,4.21-3.24l7.27,4.54-3.1,4.39-6.48-3.67v20.45l6.34,3.17,3.1-2.3.72.79c-1.49,1.1-2.95,2.19-4.39,3.24Z"/>
  <path class="cls-1" d="M144.32,46.9c-1.78-1.3-2.93-3.65-3.46-7.06l-6.91,7.27c-4.13-2.3-7.61-3.89-10.44-4.75,1.2-1.2,1.8-2.93,1.8-5.18v-19.44h-3.67v-3.6h3.67v-6.41c0-1.58-.84-3.22-2.52-4.9,1.82.43,3.38,1.18,4.68,2.23l1.01-.07c2.16-2.35,4.49-3.53,6.98-3.53-2.26,1.39-3.38,3.55-3.38,6.48v13.46l9.36-8.21,6.55,6.91c-.67.53-1.56,1.3-2.66,2.3-1.11,1.01-2.42,2.28-3.96,3.82,1.92,1.39,3.26,3.12,4.03,5.18.19.38.4,1.02.61,1.91.22.89.47,2,.76,3.35.43,2.16,1.06,3.79,1.87,4.9l1.37-.72.86.94-6.55,5.11ZM137.69,18.53l-5.69,5.18v8.28l10.15-8.71-4.46-4.75ZM136.25,30.56l-4.25,3.38v5.98l4.32,2.23,4.18-4.32c-.34-2.74-1.75-5.16-4.25-7.27Z"/>
  <path class="cls-1" d="M47.12,75.73l-6.55,8.86,6.77,4.18v13.25c-1.63.53-3.19,1.25-4.68,2.16-.38.24-.94.59-1.66,1.04-.72.46-1.58,1.02-2.59,1.69-2.5-1.25-4.92-1.87-7.27-1.87s-4.68.55-7.27,1.66l-.94-.65,8.57-12.24-6.91-3.82v-11.09c3.22-1.44,6.17-3.43,8.86-5.98,4.03,1.97,7.1,2.95,9.22,2.95l1.87-.22c.67,0,1.3-.25,1.87-.76.58-.5.86-1.09.86-1.76,0-.48-.53-1.39-1.58-2.74l-.36-.65c0-.77.58-1.15,1.73-1.15,1.44,0,2.16.89,2.16,2.66,0,1.06-.7,2.54-2.09,4.46ZM36.82,89.55l-7.99,10.37c1.3-.29,2.86-.43,4.68-.43,2.5,0,5.09.65,7.78,1.94l.07-9.58-4.54-2.3ZM40.35,80.05c-.67.05-1.39.07-2.16.07-2.21,0-4.61-.53-7.2-1.58l-.07,8.28,4.32,2.23,6.98-9.22c-.58.1-1.2.17-1.87.22Z"/>
  <path class="cls-1" d="M66.48,103.73c-1.44,1.06-2.88,2.11-4.32,3.17-3.46-2.4-6.77-3.94-9.94-4.61,1.3-1.15,1.94-2.86,1.94-5.11v-18.36c1.63-.67,3.18-1.49,4.64-2.45,1.46-.96,2.87-2.04,4.21-3.24l7.27,4.54-3.1,4.39-6.48-3.67v20.45l6.34,3.17,3.1-2.3.72.79c-1.49,1.1-2.95,2.19-4.39,3.24Z"/>
  <path class="cls-1" d="M91.54,82.42l-4.32-4.25-2.81,2.16v18.65l3.89,3.02,2.09-1.51.86.86-6.55,5.62c-2.69-2.3-5.76-4.13-9.22-5.47,1.3-1.06,1.94-2.78,1.94-5.18v-14.47c0-1.25-.58-2.35-1.73-3.31l-1.22.79-.79-.79,6.12-5.4c1.49.77,2.52,1.49,3.1,2.16.77.82,1.25,1.97,1.44,3.46l7.27-5.54,4.68,5.11-4.75,4.1Z"/>
  <path class="cls-1" d="M110.33,107.19c-3.79-2.78-8.11-4.68-12.96-5.69,1.3-1.06,1.94-2.9,1.94-5.54v-17.06c3.84-1.06,7.25-2.98,10.22-5.76,4.51,2.93,8.33,4.61,11.45,5.04v23.47c-4.22,1.25-7.78,3.1-10.66,5.54ZM114.22,81.7l-8.28-3.17v19.87c.82.34,1.64.67,2.48,1.01.84.34,1.72.67,2.63,1.01,1.25.48,2.3.84,3.17,1.08v-19.8Z"/>
  <path class="cls-1" d="M135.75,106.97c-2.26-1.97-5.66-3.79-10.22-5.47,1.25-1.39,1.87-3.12,1.87-5.18v-28.73c0-1.39-.79-2.93-2.38-4.61,1.77.43,3.36,1.2,4.75,2.3l.79-.07c2.21-2.06,4.68-3.29,7.42-3.67-2.35,1.73-3.53,3.91-3.53,6.55v30.31l5.26,3.31,1.73-1.3.86.94-6.55,5.62Z"/>
  <path class="cls-1" d="M154.97,106.97c-2.26-1.97-5.66-3.79-10.22-5.47,1.25-1.39,1.87-3.12,1.87-5.18v-28.73c0-1.39-.79-2.93-2.38-4.61,1.77.43,3.36,1.2,4.75,2.3l.79-.07c2.21-2.06,4.68-3.29,7.42-3.67-2.35,1.73-3.53,3.91-3.53,6.55v30.31l5.26,3.31,1.73-1.3.86.94-6.55,5.62Z"/>
  <path class="cls-1" d="M68.82,166.97c-3.07-1.63-4.61-4.22-4.61-7.78l-9.79,7.85h-.36c-3.41-3.17-5.11-6.24-5.11-9.22,0-4.42,2.38-8.76,7.13-13.03l-3.46-9,.94.07c2.69.24,5.16-.69,7.42-2.81l10.22,3.38,2.02-1.58.14.29c-1.15,1.78-1.97,3.62-2.45,5.54v18.86c.34,1.2,1.01,1.94,2.02,2.23l1.3-.65.79.65-6.19,5.18ZM64.22,140.33l-10.44-3.89,3.02,8.21,7.42,3.6v-7.92ZM64.29,149.55l-7.49-3.74c-1.39,2.5-2.09,4.85-2.09,7.06,0,3.26,1.39,6.29,4.18,9.07l5.4-4.61v-7.78Z"/>
  <path class="cls-1" d="M100.29,167.19c-1.73-1.1-2.89-2.28-3.49-3.53-.6-1.25-.9-2.95-.9-5.11v-17.21l-3.24-2.81-5.11,3.74v17.86l1.95,2.45-5.18,4.61-5.47-4.61,2.02-2.23v-18.5c0-1.25-.58-2.35-1.73-3.31l-1.15.79-.72-.79,5.9-5.4c3.02,1.82,4.54,4.34,4.54,7.56,2.02-1.49,3.79-2.86,5.33-4.1,1.54-1.25,2.83-2.35,3.89-3.31l4.97,4.61,3.1-2.45.72.79c-.53.67-1.06,1.39-1.58,2.16-.53.77-1.06,1.56-1.58,2.38v18.94c.34.86,1.01,1.63,2.02,2.3l1.51-.86.72.72-6.48,5.33Z"/>
  <path class="cls-1" d="M134.2,161.65c-4.22,1.39-7.78,3.24-10.66,5.54-3.84-2.78-8.16-4.68-12.96-5.69,1.34-1.2,2.02-3.05,2.02-5.54v-17.21c.86-.24,1.84-.59,2.92-1.04,1.08-.46,2.29-1.02,3.64-1.69l-9.14-5.9v-6.84l21.89,13.97c.62-1.06,1.58-1.85,2.88-2.38-.38,1.06-.58,2.09-.58,3.1v23.69ZM127.36,141.34l-5.69-3.82-2.38,1.44v19.66l8.06,2.88v-20.16Z"/>
  <path class="cls-1" d="M26.99,253.52c-.72.1-1.48.18-2.27.25-.79.07-1.62.11-2.48.11-3.74,0-7.23-.77-10.44-2.3-3.46-1.78-6.07-4.2-7.85-7.27-1.97-3.5-2.95-7.37-2.95-11.59,0-4.99,1.22-9.5,3.67-13.54,2.64-4.32,6.22-7.22,10.73-8.71-5.81,4.8-8.71,10.68-8.71,17.64,0,4.37,1.46,8.47,4.39,12.31.67-1.25,1.01-3.07,1.01-5.47v-17.14l13.97-11.81c4.51,2.74,9.22,4.1,14.11,4.1l-6.19,6.77c-1.54-.62-3.13-1.24-4.79-1.84-1.66-.6-3.35-1.19-5.08-1.76v34.13c.38,0,.96.06,1.73.18.77.12,1.34.18,1.73.18,3.02,0,5.95-.94,8.78-2.81.14-.1.64-.46,1.48-1.08.84-.62,2.03-1.51,3.56-2.66l.36.07c-3.6,7.15-8.52,11.23-14.76,12.24ZM22.38,212.12l-3.1,2.52v13.54c0,2.79-.65,5.21-1.94,7.27-.96,1.49-2.74,3.38-5.33,5.69,2.5,2.98,5.95,4.99,10.37,6.05v-35.06Z"/>
  <path class="cls-1" d="M58.67,238.76h-13.39l-.86,1.87h-1.01l2.74-7.7h13.46l.94-2.38h.86l-2.74,8.21Z"/>
  <path class="cls-1" d="M92.58,253.59c-3.74-1.82-6.55-2.74-8.42-2.74-2.16,0-4.37.91-6.62,2.74-3.26-2.4-7.46-4.29-12.6-5.69,1.34-1.2,2.02-3.05,2.02-5.54v-16.78c-2.11-2.54-3.17-4.78-3.17-6.7,0-3.07,2.38-5.88,7.13-8.42l.36.58c-1.92,1.73-2.88,3.31-2.88,4.75,0,.53.86,2.02,2.59,4.46,1.78,2.35,2.66,4.56,2.66,6.62l9.72-7.27c2.93,2.26,4.49,4.75,4.68,7.49l9.79-7.56c3.26,2.83,4.9,5.42,4.9,7.78v20.74c-3.65,1.01-7.03,2.86-10.15,5.54ZM81.42,228.82c0-.62-.17-1.18-.5-1.66-.05-.14-.74-.96-2.09-2.45l-5.33,4.25v16.27c1.97.91,4.61,1.92,7.92,3.02v-19.44ZM96.62,228.82c0-.86-.46-1.75-1.37-2.66-.14-.19-.32-.4-.54-.61-.22-.22-.49-.49-.83-.83l-5.76,4.25v16.78c.82.29,1.66.58,2.52.86.86.29,1.78.55,2.74.79.62.14,1.7.43,3.24.86v-19.44Z"/>
  <path class="cls-1" d="M125.85,253.37c-3.07-1.63-4.61-4.22-4.61-7.78l-9.79,7.85h-.36c-3.41-3.17-5.11-6.24-5.11-9.22,0-4.42,2.38-8.76,7.13-13.03l-3.46-9,.94.07c2.69.24,5.16-.7,7.42-2.81l10.22,3.38,2.02-1.58.14.29c-1.15,1.78-1.97,3.62-2.45,5.54v18.86c.34,1.2,1.01,1.94,2.02,2.23l1.3-.65.79.65-6.19,5.18ZM121.24,226.73l-10.44-3.89,3.02,8.21,7.42,3.6v-7.92ZM121.31,235.95l-7.49-3.74c-1.39,2.5-2.09,4.85-2.09,7.06,0,3.27,1.39,6.29,4.18,9.07l5.4-4.61v-7.78Z"/>
  <path class="cls-1" d="M144.86,253.37c-2.26-1.97-5.66-3.79-10.22-5.47,1.25-1.39,1.87-3.12,1.87-5.18v-28.73c0-1.39-.79-2.93-2.38-4.61,1.77.43,3.36,1.2,4.75,2.3l.79-.07c2.21-2.06,4.68-3.29,7.42-3.67-2.35,1.73-3.53,3.91-3.53,6.55v30.31l5.26,3.31,1.73-1.3.86.94-6.55,5.62Z"/>
  <path class="cls-1" d="M176.39,253.3c-1.78-1.3-2.93-3.65-3.46-7.06l-6.91,7.27c-4.13-2.3-7.61-3.89-10.44-4.75,1.2-1.2,1.8-2.93,1.8-5.18v-19.44h-3.67v-3.6h3.67v-6.41c0-1.58-.84-3.21-2.52-4.9,1.82.43,3.38,1.18,4.68,2.23l1.01-.07c2.16-2.35,4.49-3.53,6.98-3.53-2.26,1.39-3.38,3.55-3.38,6.48v13.46l9.36-8.21,6.55,6.91c-.67.53-1.56,1.3-2.66,2.3-1.11,1.01-2.42,2.28-3.96,3.82,1.92,1.39,3.26,3.12,4.03,5.18.19.38.4,1.02.61,1.91.22.89.47,2,.76,3.35.43,2.16,1.06,3.79,1.87,4.9l1.37-.72.86.94-6.55,5.11ZM169.77,224.93l-5.69,5.18v8.28l10.15-8.71-4.46-4.75ZM168.33,236.96l-4.25,3.38v5.98l4.32,2.23,4.18-4.32c-.34-2.74-1.75-5.16-4.25-7.27Z"/>
</svg>