<?xml version="1.0" encoding="UTF-8"?>
<svg xmlns="http://www.w3.org/2000/svg" viewBox="0 0 842.89 596.28">
  <defs>
    <style>
      .cls-1 {
        fill: none;
        stroke: #000;
        stroke-miterlimit: 10;
      }
    </style>
  </defs>
  <g id="Ebene_1" data-name="Ebene 1">
    <path d="M314.08,464.21c-.84.79-2.67,1.07-2.87,2.19-.24,1.35,1.31,5.89,1.46,7.87.48,6.18-.71,18.46-1.45,24.94-.27,2.37-1.96,6.88-1.89,8.58.08,1.81,2.22,4.96,2.92,6.81,1.18,3.09,3.39,13.23,3.04,16.3-.1.9-.65,1.5-.62,2.54.1,4.61,5.73,9.46,4.59,13-.43,1.34-2.9,3.25-4.29,3.54-7.08,1.51-6.04-3.66-8.67-7.79-.74-1.16-2.26-2.17-2.75-3.59-.83-2.43-.44-6.2-.17-8.77l-.74-.19c-2.2,3.89-4.01,5.67-3.33,10.6s7.03,5.79,6.71,10.47c-.1,1.45-1.02,2.56-2.47,2.78-6.1.95-14.05-3.24-20.33-3.51-3.3-2.01-2.96-7.35-2.04-10.65.74-2.68,2.46-4.24,3.63-6.45,3.58-6.76,4.71-14.13,7.61-21.15.11-.49.12-1.22-.02-1.7-.63-2.25-4.83-8.1-6.23-10.73-5.85-10.99-9.74-21.54-8.94-34.34-.29-.86-3.13-.72-4.17-3.3-1.85-4.61.85-8.81.89-13.17.02-1.95-.65-4.46-.57-6.55-.71-2.31-7.06-3.72-9.41-5.14-4.96-3.01-7.13-8.44-5.37-14.07.55-1.77,7.76-13.59,9-14.5.98-.73,2.86-1.09,3.5-2.09.56-.88.58-2.41,1.03-3.45.98-2.29,3.61-1.85,5.87-3.46,1.25-.9,5.94-6.29,6.87-2.7.5,1.92-2.55,3.41-3.62,5.2-.55.92-2,4.83-.5,4.73.33-.02,2.97-.94,3.35-1.14,2.69-1.44,2.38-5.11,4.24-6.58,2.32-1.83,6.43,0,7.18-.47.68-1.31.24-2.79.51-4.16,2.13-11.12,17.33-12.03,18.85-.37.73,5.6-2.59,11.21-5.12,15.95,3.3,1.32,5.32,3.23,7.39,6.03,1,1.35,3.38,6.15,4.55,6.64.93.39,2.11-.09,2.79.93.73-.72.88-1.7,1.66-2.43.82-.77,3.32-1.45,2.95-2.88-.11-.44-.73-.86-.9-1.38-1.08-3.22,2.23-3.81,2.46-5.45.19-1.33-1.11-2.29-.67-4.37.11-.53,2.22-4.79,2.52-4.95h1.14c1.66,1.75,0,4.78.83,6.62.43.97,1.76,1.81,2.46,2.78,2.44,3.43,1.3,6.16,1.56,10,.08,1.25.72,2.4.76,3.73.14,3.88-2.06,3.45-4.14,5.59-3.36,3.45-4.7,7.36-9.69,9.71-4.64,2.18-8.65-.25-9.32,6.35-.47,4.64,1.41,14.38-2,17.58Z"/>
    <path d="M784.86,416.85c-.15.56.15.62.37.93,2.12,3.03,4.79,4.98,6.16,8.76.32.89.09,1.74.6,2.75,1.05,2.05,3.66,1.18,4.4,4.55.8,3.66,1.18,8.01-.39,11.49-1.75,3.89-4.51,3.92-7.74,5.69-.3,4.77,2.88,10.61.61,15.16-.47.94-1.61,1.37-1.61,2.7,0,.94,2.66,6.65,3.2,8.2,6.47,18.56,9.6,31.43,5.79,51.32-.87,4.56-2.89,7.45-.76,12.3,1.68,3.83,7.36,4.67,7.95,7.36.92,4.19-4.67,4.35-7.48,3.74-3.2-.69-6.09-2.93-9.04-4.02-4.27-1.57-10.46-.24-9.86-6.85.31-3.4,2.58-6.35,3.16-9.16.89-4.34,1.78-21.55.8-25.47-.09-.38-.11-1.12-.63-1.04.46,4.53-.42,9.05-1.22,13.51s-1.78,9.75-2.83,13.95c-.64,2.56-3.43,8.06-3.42,10.03.02,4.56,10.49,5.64,9.19,9.89-.89,2.93-5.49,2.29-7.89,2.22-3.34-.1-6.72-.8-10.05-1.11-4.51-.43-9.82,1.29-9.51-5.41.35-7.55,4.69-12.46,5.86-19.14.98-5.59,1.94-13.99,2.34-19.67.57-7.96-5.52-20.28-7.65-28.53-.98-3.81-1.62-7.7-2.21-11.59-.43-.64-2.54-.1-3.71-.77-2.08-1.18-1.83-4.77-1.72-6.86.23-4.43,1.39-9.11,1.33-13.64-4.08-4.7-8.74-6.17-7.59-13.51.69-4.4,13.75-21.91,17.55-24.61,1.4-1,4.15-1.85,5.11-2.73,1.29-1.19,1.89-4.13,3.62-5.34,3.15-2.19,6.8.89,8.34-.62.78-.77,1.28-3.69,1.8-4.91,5.08-11.71,20.29-7.34,19.09,6.4-.49,5.63-6.82,11.96-11.93,14Z"/>
    <path d="M312.25,117.84c-.15.55.14.62.36.94.46.66,4.06,3.83,4.89,4.44,3.28,2.41,5.77,2.22,8.32,5.85.32.46,1.32,2.89,1.54,2.94.73.16.53-.28.75-.73.44-.9.49-1.84,1.09-2.66.95-1.29,3.74-2.32,4.48-3.73,1.21-2.31.53-6.16,1.43-8.27.5-1.19,1.74-.8,2.25-1.85.6-1.23.11-3.38.36-4.86.15-.94,1.28-3.71,2.34-2.15.38,1.63-.05,3.02.53,4.69.81,2.31,3.45,2.54,3.76,5.57.19,1.85-1.02,6.08-2.09,7.63-.47.69-1.81,1.54-1.98,2.16-.17.65.44,3.44.33,4.78-.32,3.84-2.47,3.2-4.06,5.64-1.59,2.44-1.44,5.05-3.97,7.6-4.79,4.84-10.6,1.28-15.3-1.52-3.23,5.11,3.46,13.39-.94,18.11-.71.76-2.76,1.22-2.95,1.91.73,3.29.87,5.3-.02,8.54-.21.78-.95,1.4-.96,2.06-.07,5.09,9.47,18.25,10.85,25.7,1.34,7.23-1.26,24.84-4.03,31.83-1.51,3.8-5.08,7.13-3.11,11.49,1.28,2.81,5.03,4.2,4.31,7.99-.4,2.12-3.3,1.85-4.99,1.65-3.96-.48-8.45-4.93-11.82-7.21-1.31-.89-3.69-1.28-4.29-3.17-.96-3.07,3.57-8,6.11-9.57-1.42-3.56.64-5.06,1.57-7.78,1.21-3.54,1.01-11.45.17-15.13-.09-.41,0-1.21-.56-1.11-.19,5.51-2.87,10.44-4.29,15.67-.93,3.42-1.26,6.99-2.32,10.36-1.29,4.11-1.45,3.85-1.98,8.47-.12,1.03-1.31,4.89-.52,5.46,2.72.88,9.73,1.9,7.71,6.21-.97,2.08-7.23,2.03-9.24,1.95-3.19-.13-10.1-.52-12.98-1.2-.99-.23-2.41-1.13-2.72-2.13-.34-1.12-.62-4.54-.5-5.76s3.2-9.91,3.87-10.68c.86-1,2.49-1.49,2.75-2.88.17-.92-.3-1.56-.24-2.15.24-2.5.73-5.26,1.1-7.78,1.02-6.78,2.8-12.13,2.17-19.08-.9-9.93-3.94-15.17-6.99-23.98-1.7-4.91-2.29-9.16-2.01-14.4-.46-1.37-4.9-.42-5.62-3.37s2.28-8.05,2.64-11.28c.13-1.16.25-4.85-.15-5.73-.21-.45-1.29-1.25-1.76-1.97-3.21-4.97-2.95-12.01.52-16.81,1.3-1.79,3.39-3.21,4.78-4.92,2.31-2.84,3.24-5.81,6.18-8.37,1.65-1.44,4.82-2.96,6.12-4.32.76-.8.75-1.86,1.35-2.76.63-.95,2.35-1.74,2.6-2.25.49-1.03-.08-2.82.91-3.94,1.41-1.6,6.46-.83,8.37-2.07s2.88-6.1,6.19-7.61c8.87-4.04,16.86,4.97,12.97,13.71-.6,1.34-2.25,2.75-2.66,3.63-.14.31.1.83-.04,1.13-1.19,2.61-7.57,7.2-10.64,7.09Z"/>
    <path d="M669.13,249.74c-2.86-2.8,1.15-7.69,1.3-10.25.09-1.51-.48-3.26-.25-5.1.94-7.8,3.42-15.29,2.54-23.49-.04-.36-.64-3.67-1.45-2.84-4.07,12.35-3.16,25.65-9.94,37.12,0,1.38,2.9,1.8,4.1,2.49,2.71,1.57,6.5,5.96,1.74,7.59-3.78,1.29-15.62.72-19.93.15-5.5-.73-3.58-8.05-1.86-11.49.78-1.57,3.47-4.62,3.79-5.91.76-3.08.71-8.03,1.26-11.42,1.08-6.72,2.67-13.23,4.42-19.79-5.88-12.2-7.47-25.85-9.4-39.13-.4-1.41-3.51-.96-4.92-1.8-4.2-2.51.73-13.16-.48-17.06-.94-3.04-6.16-3.03-6.81-7.74-1.41-10.27,6.74-17.98,12.44-25.18,2.49-3.14,3.61-6.02,6.97-8.71,1.65-1.33,4.56-2.51,5.9-3.8,2.15-2.06,1.61-5.45,5.16-6.03,1.5-.25,3.12.24,4.49-.55,1.69-6.34,5.11-10.96,12.33-8.61,5.9,1.92,9.09,10.84,6.2,16.13-1.41,2.59-3.4,2.98-4.81,4.52-.62.67-.8,1.87-1.68,2.8s-3.29,1.72-3.34,2.94c-.02.45.38,3.91.51,4.34.25.79,2.64,3.24,3.36,4.48,2.27,3.93,5.72,10.43,7.03,14.61,1.1,3.53.59,6.68-2.97,8.43-2.99,1.47-6.94-.52-6.85,3.22.1,4.04,2.47,7.43.32,11.9-.43.89-2.36,2.73-2.41,3.03-.1.71.98,2.88,1.18,3.91,1.98,10.09,4.86,14.79,8.1,23.98,3.53,9.99,4.31,21.25,3.25,31.81-.49,4.88-3.41,12.78-2.52,17.08.73,3.55,6.35,5.46,6.93,8,.64,2.83-1.15,4.24-3.84,4.24-3.04,0-13.28-1.55-16.32-2.37-.6-.16-3.22-1.18-3.54-1.49Z"/>
    <path d="M551.7,414.3c-.16.98.96,1.07,1.49,1.68,3.82,4.41,3.21,6.28,3.74,11.56.33,3.28,1.64,2.96,3.14,5.07,1.57,2.21,6.17,15.55,6.39,18.24.25,3.17-1.89,4.87-4.51,5.98-1.9-.36-1.03-2.22-1.37-3.46-.21-.75-4.31-4.4-5.14-2.69,1.92,3.95,3.39,9.17,1.44,13.39-.6,1.31-2.88,2.95-2.93,3.75-.04.7,4.08,9.27,4.74,10.93,2.16,5.51,6.34,15.98,6.81,21.55.68,8.23-5.82,23.5-12.3,28.72-1.57,1.27-3.3,1.8-4.82,3.04.37,2.58,2.06,5.08,3.87,6.85,1.47,1.44,3.47,1.75,3.59,4.29.2,4.41-8.22,1.77-10.45.34-2.86-1.83-5.79-8.33-6.57-.54.82,1.98,9.44,2.9,8.97,6.78-.51,4.14-11.85,3.5-14.92,3.3-1.77-.11-9.93-1.08-10.98-1.7-1.16-.68-1.73-2.26-1.69-3.57.06-2.05.96-8,1.45-10.04s2.45-3.75,3.08-5.5c1.34-3.69,2.04-10.14,2.91-14.26,1.39-6.61,2.44-8.17,1.64-15.43-.95-8.53-3.66-12.17-6.48-19.64-1.92-5.09-3.15-9.76-2.22-15.31-7.18-1.67-4.05-9.1-3.58-14.34.25-2.77.2-5.65.54-8.41-2.65-2.64-8.99-6.11-9.78-9.95-.73-3.51,1.4-7.51,3.34-10.3,2.59-3.73,11.39-14.58,15.1-16.24,1.61-.72,4.06-.78,5.19-1.52,1.99-1.31,1.56-5.82,4.86-6.34,1.47-.23,3.15.37,4.5-.36.77-.63.81-3.64,1.15-4.82,3.52-12,19.99-8.21,18.36,5.67-.33,2.83-4.32,10.86-6.55,12.47-.54.39-1.32.7-1.99.81ZM546.1,510.55c2.29-2.42,5.67-10.43.93-11.93-1.06,2.3,0,4.98-.17,7.66-.09,1.44-.54,2.86-.76,4.28Z"/>
    <path d="M96.55,155.86c-.82.68-3.09,1.29-4,.69-1.24-.82-.18-3.39-.52-3.93-1.21-.71-3.49-1.71-4.85-1.48-.72.12-1.09.73-2.26.78s-6.04-1.94-6.16-.6c2.03,4.44,5.19,10.23-.6,13.25l-.12.49c1,1.78,1.62,3.73,2.17,5.69,2.8,10.1,5.35,21.7,6.37,32.05-2.24,9.62-6.49,18.98-11.13,27.68-1.66,3.11-3.52,3.66-1.62,7.83.87,1.92,10.67,11.68,4.72,12.8-6.61,1.24-10.57-2.67-15.29-6.33-3.47,5.26,3.26,4,4.13,8.18.88,4.22-5.41,3.47-8.25,3.39-3.05-.08-7.4-.38-10.43-.77-1.58-.2-2.7-.23-3.71-1.51-3.5-4.47,2.79-13.15,3.72-17.86.98-8.92,4.99-18.82,6.04-27.53.35-2.95-1.16-6.69-1.65-9.72-.9-5.51-1.2-11.59-2.46-16.94-1.19-5.05-3.69-9.81-2.86-15.36-12.36-1.8-2.3-15.63-5.34-23.08-.45-1.09-7.59-4.78-9.21-6.09-3.79-3.08-4.82-7.9-2.71-12.35,2.08-4.39,7.47-5.32,11.07-7.96s5.93-6.63,9.18-9.1c1.86-1.42,8.2-3.75,8.83-4.42.5-.54.73-2.49,1.27-3.4,2.27-3.86,5.54-.8,7.24-2.47.91-.9,1.05-3.76,1.72-5.37,3.36-8.09,13.86-7.21,17.01.42,2.87,6.94-1.15,12.15-5.34,17.22-1.37,1.65-2.74,2.6-4.63,3.57,1.47,1.76,2.69,3.76,3.36,5.96,1.1,3.57.45,7.11,1.65,10.66.36,1.05,2.64,5.64,3.45,5.88.64.19,1.41-.04,2.06.18,4.55,1.52,8.33,6.93,10.06,11.21,1.23,3.06,1.94,5.94-.93,8.34ZM69.05,214.92c.51-3.61,4-8.29,4.09-11.79.05-1.8-2.43-4.02-3.52-5.36-1.15-.02.14,5.32.18,6.15.23,4.25-.62,6.07-1.08,9.74-.05.4-.32,1.35.33,1.26Z"/>
    <path d="M199.79,114.46c-.39,1.12.82,1.5,1.24,2.22,3.08,5.25,2.06,11.34,2.04,16.95-.01,4.46,5.8,4.7,8.95,6.75,2.44,1.59,2.54,2.62,4.13,4.45.52.59,1.5.92,2.08,1.65,1.04,1.32,3.25,8.1,3.07,9.8s-1.5,5.18-3.65,4.02c.27-1.29.94-3.04-.18-4.09-.9.69-1.74,1.31-2.95,1.14-2.76-6.56-10.49.28-15.52-1.14.36,3.21,1.2,6.41-.51,9.38-.58,1-1.75,1.55-1.72,2.69,1.23,6.81,3.67,13.62,4.11,20.56.18,2.91-.14,6.02,0,8.96.08,1.69.83,3.38.75,5.21-.21,4.76-3.38,10.09-4.37,14.68-.92,4.25-.43,8.52-1.56,12.99-1.69,6.69-6.66,9.5-.44,16.38,1.06,1.17,2.48,1.42,3.09,3.25,1.94,5.85-5.7,3.63-9.04,3.63.14,2.17-.53,3.73-2.83,4.08-3.09.47-16.01-1.01-18.92-2.3s-2.67-5.64-1.79-8.32c1.41-4.29,4.64-8.18,6.27-12.38,1.28-3.3,1.86-6.98,3.07-10.36,1.72-4.81,4.59-9.11,4.8-14.47-6.33-6.3-9.36-14.68-11.03-23.31-1.33-6.9-2.19-14.32-2.76-21.3-10.08-.45-6.27-9.84-6.38-16.56-5.16-7.61-13.75-13.91-6.09-23.4,2.17-2.69,5.44-4.42,7.86-6.69,3.92-3.69,8.58-8.23,12.1-12.15.94-1.05,2.71-1.85,3.35-2.62.85-1.03.66-2.49,1.23-3.62,1.97-3.98,7.3-.97,9.77-2.55.75-.48,2.49-4.58,3.76-5.94,7.44-7.93,19.07,1.37,14.81,12.2-.99,2.51-3.43,4.46-3.98,5.72-.74,1.67.37,3.79-2.76,4.51Z"/>
    <path d="M566.55,91.94c2.5,2.54,3.55,7.38,3.09,10.84-.57,4.3-5.75,9.26-8.88,12.04.33,1.55.97,2.73,1.09,4.39.34,4.76-1.63,5.87.72,11.22,1.36,3.1,3.25,3.34,5.02,5.43.76.9,1.35,2.68,2.21,3.58,1.18,1.23,4.07,2.55,4.81,4.33.19.46,1.82,7.83,1.81,8.3-.14,3.93-5.6,7.09-6.23,4.31-.35-1.55,1.18-4.14-.71-5.61-2.53,3.08-4.62,1.26-7.65.37,1.19,5.18,3.49,8.77-.55,13.44-.66.76-1.92.93-2.06,2.05.74,9.33,4.81,17.94,6.98,26.96,1.1,4.58,2.21,7.93.96,12.68-1.28,4.89-7.44,21.1-10.38,24.69-.58.7-1.48.95-2.01,1.69,2.34,2.13.21,5.19.89,7.66.88,3.2,6.33,5.72,5.74,9.04-.4,2.26-4.29,1.95-6.09,1.76-4.62-.47-8.39-5.38-12.13-7.83l-1.09,3.85c.36,1.14,6.24,1.45,6.25,5.66,0,3.75-5.8,3.28-8.36,3.19-2.75-.09-11.4-.93-13.5-2.17-3.08-1.82-1.91-8.15-.68-10.92.78-1.75,2.89-3.55,3.38-4.82.46-1.19.39-2.86.73-4.12,1.29-4.85,2.57-9.83,4.04-14.62.89-2.91,4.41-10.89,4.34-13.1-.11-3.72-2.73-10.22-3.83-14.11-.42-1.48-.46-3.15-.89-4.71-1.94-7.01-7.62-12.44-6.87-20.36l-.56-.56c-8.75,1.01-4.16-10.4-3.87-15.54.09-1.63.15-3.96-.04-5.55-.58-4.84-5.94-6.53-5.96-12.73-.03-9.99,6.6-12.18,12.35-18.27,2.29-2.42,2.94-4.33,6.08-6.23,1.16-.7,4.81-2.01,5.37-2.65.89-1.04,1.26-4.2,2.91-5.86,2.2-2.22,6.34-.32,7.56-1.58.4-.42.77-3.41,1.5-4.65,3.06-5.19,10.4-5.63,14.5-1.47Z"/>
    <path d="M198.91,465.68c-.39,2.37-3.66,3.75-3.3,5.51.23,1.14,4.83,7.03,5.84,8.74,3.91,6.57,9.44,18.68,7.73,26.24-2.29,10.19-10.34,20.71-17.31,28.23-.2,5.4,8.19,6.86,6.59,12.16-.13.44-.52.74-.9.96-3.77,2.14-12.15-3.66-14.51-6.67-.7,1.08-2.03,3.78-1.63,4.97.63,1.91,8.6,1.7,8.93,6.41.3,4.2-4.69,3.63-7.69,3.55-4.27-.11-9.92-.4-14.16-.77-3.96-.34-5.34-.83-5.06-5.05.16-2.39,1.89-10.34,2.99-12.31.72-1.3,2.04-2.22,2.74-3.26,1.55-2.29,6.68-18.32,6.61-20.97-.04-1.44-.79-3.41-.78-4.86,0-1.22.62-2.27.74-3.4.78-7.85-7.22-16.29-9.95-23.55-1.32-3.53-1.67-6.82-1.74-10.57-.73-1.01-3.76.63-4.53-2.93-1.19-5.47,1.11-13.06.14-18.8-2.86-2.58-6.78-4.19-7.6-8.45-1.31-6.81,4.37-11.43,7.97-16.31,3.28-4.44,5.78-9.49,10.63-12.5,1.56-.97,5.35-1.99,6.22-2.74,1.38-1.19,1.16-4.35,3.61-5.72,2.68-1.5,6.23,1.01,7.79-2.29,1.42-3,1.46-6.53,5.07-8.36,10.13-5.14,17.88,9.17,11.48,17.82-.52.7-1.23.92-1.59,1.4-2.67,3.54-1.97,3.8-6.43,5.52-.38.15-.66-.2-.5.57,1.76,2.69,3.65,5.76,4.57,8.86.99,3.32.96,7.36,1.85,10.46.49,1.69,1.87,2.39,2.27,3.7.33,1.07.1,2.09.33,3.02.9,3.53,3.13,7.18,1.97,10.73-.32.98-1.69,2.28-1.69,2.79,0,.6,1.11,1.61,1.32,2.42.4,1.49.45,6.33-1.14,7.1-.63.31-.59-.43-.73-.74-.75-1.73-1.27-5.74-2.54-6.99-.29-.29-.97-.35-1.37-.67-.87-.7-1.37-1.88-2.63-1.66-.14.41.37.82.37.93,0,2.12.32,5.56,0,7.46ZM191.82,509.52c2.54-2.64,3.06-5.34,0-7.83v7.83Z"/>
    <path d="M79.73,419c.68,2.07,2.11,3.48,2.72,5.67.57,2.04.4,4.28,1.2,6.26s3.28,3.42,3.74,5.21c.28,1.1,0,2.15.26,3.1.37,1.37,1.27,2.89,1.61,4.36,1.24,5.54-.95,10.44-7.3,8.39-2.25,1.08.88,8.67.77,11.19-.04.81-.49,2.95-.83,3.66-1.12,2.32-3.15,1.48-2.9,5.3.79,11.86,8.79,27.03,5.57,39.16-2.04,7.68-8.25,14.82-10.82,22.39-.97,2.87-2.58,9.07-2.94,11.98-.57,4.55,4.74,4.71,5.73,7.63,2.62,7.69-11.45,2.92-14.64,2.33-3.36-.62-6.79-.92-10.18-1.39-3.99-2.66-.29-7.46-.71-11.22-.25-2.2-2.55-3.86-1.79-6.24,1.96-4.62,4.16-9.13,5.95-13.83,1.22-3.21,3.78-9.19,3.68-12.39-.09-2.9-.59-4.4.73-7.41-3.35-9.04-9.51-17.62-10.78-27.32-.29-2.26-.19-4.6-.42-6.86-2.12,1.05-3.7-1.42-3.94-3.34-.26-6.87.81-13.79,1.27-20.65-4.25-4.09-9.8-7.41-9.27-14.25.61-7.77,7.3-8.6,11.95-12.3,1.89-1.5,3.21-4.53,4.85-6.36,1.43-1.6,3.69-2.72,5.21-4.1,2.7-2.44,2.66-4.6,7.07-4.87,1.39-.08,3.49.74,4.71-.14,1.08-.78,2.06-5.83,2.98-7.47,3.14-5.62,11.72-5.99,15.62-1.11,2.74,3.44,3.55,8.66,2,12.75-.39,1.03-3.22,6.18-3.85,6.97-1.19,1.52-5.3,4.47-7.26,4.87Z"/>
  </g>
  <g id="Ebene_2" data-name="Ebene 2">
    <path d="M435.18,100.06c.08,2.2.83,3.51.88,5.34.02.62-.28,1.2-.8,1.53-1.07.68-1.96,1.57-3.02,2.25-4.95,3.23-8.17,3.1-11.73,8.38-.16.24.04.48-.53.37.17-1.76,2.68-3.21,2.79-4.84.11-1.71-2.62-2.93-2.11-5.07.34-1.43,4.46-2.17,3.72-4.32-.78-2.26-4.6,1.03-5.65,1.64-1.39.81-3.3,1.44-4.31,2.63-1.79,2.12-1.2,5.63-2.74,7.81-.74,1.05-2.42,2.06-3.68,2.53l.27.42.8.15c-.4.66-.92,1.22-1.05,2.01-.84,4.99.63,9.61,1.67,14.42.41,1.91.08,3.54,1.52,5.29,1.91,2.3,4.8,2.92,7.56,3.85.79.27,1.28,1.06,1.15,1.89-.39,2.63-.78,5.28-1.01,7.92-.29,3.19-1.21,8.68.67,11.35.56.79,2.64,2.22,2.74,2.69.27,1.24-.05,3.53,0,4.93.42,11.78,1.17,23.94,8.18,34.28,1.19,1.75,2.77,3.3,3.76,5.14.15.29.21.61.19.94-.32,3.87-.84,8.03-2.12,11.73-1.04,2.98-3.31,5.46-4.38,8.44-1.16,3.22-1.17,6.44-.38,9.73.5,2.1,2.56,5.79,2.67,7.51.05.76-.51,1.36-.61,2.07-.32,2.21.89,3.32,2.93,3.75.63.13,1.13.58,1.33,1.2.69,2.19,2.32,3.32,5.09,3.81,2.18.38,8.18.57,8.77-1.98.87-3.76-4.86-6.59-6.75-9.88-.39-.67-.29-1.51.24-2.07.36-.39.77-.75,1.08-1.2,1.65-2.33,1.52-4.7,2.32-7.23.43-1.35,1.17-2.61,1.65-3.94.32-.08.35.08.53.19.42.25,2.02,1.75,2.9,2.74.41.46.53,1.11.33,1.69-.4,1.17-1.03,2.37-1.76,3.33-1.27,1.68-4.64,3.84-2.31,6.07s7.05,1.16,9.48-.47c1.75-1.17,2.56-2.89,3.97-4.07,2.16-1.81,5.59-2.43,6.09-5.79.47-3.17-1.42-4.28-2.19-6.75-.29-.92-.24-1.88-.62-2.86-.7-1.84-3.43-5.91-4.62-7.85-.95-1.55-2.47-2.67-3.4-4.38-1.82-3.38-1.43-5.65-.64-9.18,2.35-10.48,5.57-21.14,5.29-31.92-.02-.68-.39-1.34-.22-2.07s1.86-1.01,2.02-2.72c.27-2.94.71-2.61,1.78-5.1,1.32-3.06,1.21-6.02.9-9.25-.25-2.67-.93-5.31-1.28-7.97-.17-1.32,1.18-2.32,2.4-1.79.11.05.23.09.35.12,6.2,1.4,11.12-5.34,10.69-10.25-.44-5.01-5.6-9.73-5.97-13.86-.19-2.11.59-6.61-1.13-8.19-.44-.41-1.54-.81-2.08-1.29-2.17-1.94-1.41-4.49-2.01-6.75-.23-.86-1.15-1.44-2.03-.83-.8.55-1.44,3.96-1.51,4.92-.05.79.45,4.62-.56,4.82-1.13.22-3.09-2.24-3.83-2.83-1.46-1.14-4.06-1.76-5.07-3.28-.35-.54-.44-1.34-.8-1.75-.3-.34-1.21-.58-1.4-.85-.41-.6.24-3.19,1.06-4.34.41-.57.78-1.18.97-1.86.37-1.33.53-2.73.41-4.08-.28-3.17-.13-4.64-1.1-7.02-1.39-3.41-3.57-5.17-7.57-4.85-3.46.28-6.39,1.98-7.31,4.84-.52,1.63-1.17,3.66-1.15,5.14.03,2.4-.14,3.07.26,4.92Z"/>
    <path d="M684.96,415.29c-1.31,1.52-2.44,3.19-4.14,4.31-2.14,1.41-3.16,2.37-5.83,1.5-.41.31,3.11.1-.19,10.27-1,3.09-.62,6.52-.8,9.76-.03.47-.03.97.05,1.44,2.03.37,4.11,4.47,5.58,4.88.39.11.82,0,1.23.14,1.28.38,1.55,4.3,1.93,5.5.46,1.43,1.89,3.06,2.56,4.48.62,1.33,2.18,5.22,2.45,6.54.08.4.13.78.09,1.18-.43.47-3.77-3.36-3.72-4.11h-.39c.51,1.39.2,2.75-.78,3.82-.73.22-1.27-1.47-1.47-1.47-.6.65-2.66,2.65-2.66.68,0-.98,1.05-2.52.5-3.42-.11-.19-.58-.33-.79-.58-1.43-1.69-1.42-3.76-4.2-2.55.63,2.88,2.24,8.84,1.06,11.51-.69,1.57-2.95,1.26-3.03,2.07-.02.31.03.59.11.89.6,2.1,2.01,4.78,2.79,6.98,2.01,5.69,5.37,16.19,4.94,22.05-.5,6.79-1.3,15-2.6,21.65-.55,2.79-1.45,5.4-2.03,8.14-.41,1.96-.52,5.5-1.13,7.08-.53,1.37-3.36,2.47-1.37,4.3,2.08,1.92,4.89,1.78,7.37,2.41,3.28.83,3.3,4.07.81,5.78-3.54,2.43-7.54.82-11.32,1-3.56.17-6.35,1.89-10.22.65-2.58-.83-2.41-2.52-2.39-4.84.04-3.91-.65-7.89.33-11.79,1.14-4.53,3.72-8.9,3.28-13.73-1.28,1.54-2.57,3.28-3.62,4.98-2.43,3.93-3.7,9.03-9.18,9.5.17,2.96.54,5.56,2.13,8.11,1.06,1.69,5.1,5.41,2.42,7.3-1.88,1.32-7.12-.34-9.01-1.5-3.02-1.85-3.04-4.19-5.04-6.3s-6.52-2.62-6.15-6.52c.15-1.54,1.1-2.38,1.64-3.64.61-1.4.66-2.89,1.43-4.24.69-1.21,2.04-2.2,2.74-3.32.6-.95.58-1.98.97-2.94.98-2.4,4.65-5.43,6.34-7.74,1.44-1.97,2.33-3.99,3.52-6.07.71-1.25,2.2-2.73,2.32-4.13.08-.93-.23-1.72-.21-2.54.02-.71.6-1.91.58-2.36-.01-.25-1.52-2.89-1.78-3.48-3.78-8.68-5.72-18.72-7.14-28.05l-.2-.25c-1.91-.46-3.51-.76-4.12-2.88-.86-2.98.81-8.57,1.12-11.87.12-1.29.2-2.61.19-3.91-.12-.61-2.45-2.54-3.03-3.23-4.74-5.63-6.59-18.64-.59-23.86,3.61-3.14,13.02-9.26,17.38-11.18,2.07-.91,7.26-1.73,8.43-3.11.56-.66.7-1.69,1.37-2.34,1.48-1.44,3.73-.7,5.12.47.17.15,0,0,0,0,.34-2.61,2.46-10.18,8.79-11.39,6.19-1.19,11.28,3.39,10.84,9.67-.09,1.22-.62,3.28-.79,4.28-.36,2.19-1.35,4.65-2.55,6.04Z"/>
    <path d="M403.01,546.07c-2.54-1.76-.65-4.95-.21-7.48,1.09-6.36.55-7.89-.96-13.85-1.78-7.02.75-15.77-.78-23.06-.27-3.76.56-8.13-.37-11.76-1.18-4.63-3.13-8.56-2.71-13.71v-8.67c-1.99.5-4.1-.34-4.72-2.29-1.06-3.34,1.56-6.58,0-10.65-1.88-4.9-3.91-7.81-4.29-13.46-.12-1.76.48-5.18.22-6.47-.3-1.51-2.02-4.3-2.52-6.37-1.86-7.66-.7-20.28,9.29-22.07.69-.12,3.49-.23,3.68-.47,1.41-3.87-.05-7.77,1.96-11.49,2.97-5.48,11.39-5.65,14.8-.48,2.92,4.43,1.3,10.04-1.18,14.26,4.22,4.34,8.87,8.27,13.31,12.42,2.08,1.95,5.31,4.51,7.03,6.47,4.16,4.74,3.54,12.2-2.33,15.35l-.06.27c2.02,5.97,7.27,10.26,5.61,17.1-.33,1.35-1.36,2.36-1.6,3.3s2.4,5.92,2.93,7.25c6.47,16.42,7.77,36.41,1.1,52.92-1.86,4.61-4.27,10.45-8.73,13.21,1.02,1.62,1.65,2.39,3.52,3.12,2.61,1.01,6.49,1.71,6.81,5.22.48,5.28-8.18,3.64-11.32,2.61-1.84-.61-4.26-2.2-5.98-2.46-2.76-.41-5.89,1.05-8.51-1.09-.69.77-.1,1.92-.12,2.78-.1,3.4-2.68,3.44-4.49,5.35-1.5,1.58-2.09,3.45-4.08,4.89-3.17,2.28-10.62,2.81-10.08-2.49.29-2.89,4.42-5.17,4.79-8.21ZM419.74,524.94c.2-.98,1.2-1.49,1.75-2.2,2.56-3.24,2.92-6.51,4.52-10.11.49-1.11,2.4-4.09,2.45-4.94.08-1.24-1.65-3.09-2.3-4.19-.75-1.26-1.28-2.62-2.13-3.82-2.18,3-1.34,6.31-1.93,9.64-.89,4.97-4.27,10.19-2.68,15.2.06.2.04.48.32.41Z"/>
  </g>
  <g id="Ebene_3" data-name="Ebene 3">
    <g>
      <rect class="cls-1" x=".5" y=".5" width="841.89" height="595.28"/>
      <line class="cls-1" x1=".5" y1="298.14" x2="842.39" y2="298.14"/>
      <line class="cls-1" x1="722.12" y1=".5" x2="722.12" y2="595.78"/>
      <line class="cls-1" x1="601.85" y1=".5" x2="601.85" y2="595.78"/>
      <line class="cls-1" x1="481.58" y1=".5" x2="481.58" y2="595.78"/>
      <line class="cls-1" x1="361.31" y1=".5" x2="361.31" y2="595.78"/>
      <line class="cls-1" x1="241.04" y1=".5" x2="241.04" y2="595.78"/>
      <line class="cls-1" x1="120.77" y1=".5" x2="120.77" y2="595.78"/>
    </g>
  </g>
</svg>