<?xml version="1.0" encoding="UTF-8"?>
<svg id="Ebene_1" data-name="Ebene 1" xmlns="http://www.w3.org/2000/svg" viewBox="0 0 110.89 48.37">
  <defs>
    <style>
      .cls-1 {
        fill: #f2afcf;
        stroke: #f6c4dc;
        stroke-miterlimit: 10;
        stroke-width: 2px;
      }
    </style>
  </defs>
  <path class="cls-1" d="M16.4,43.73c-1.44,1.06-2.88,2.11-4.32,3.17-3.46-2.4-6.77-3.94-9.94-4.61,1.3-1.15,1.94-2.86,1.94-5.11v-18.36c1.63-.67,3.18-1.49,4.64-2.45,1.46-.96,2.87-2.04,4.21-3.24l7.27,4.54-3.1,4.39-6.48-3.67v20.45l6.34,3.17,3.1-2.3.72.79c-1.49,1.1-2.95,2.19-4.39,3.24Z"/>
  <path class="cls-1" d="M34.11,46.97c-2.26-1.97-5.66-3.79-10.22-5.47,1.25-1.39,1.87-3.12,1.87-5.18V7.59c0-1.39-.79-2.93-2.38-4.61,1.78.43,3.36,1.2,4.75,2.3l.79-.07c2.21-2.06,4.68-3.29,7.42-3.67-2.35,1.73-3.53,3.91-3.53,6.55v30.31l5.26,3.31,1.73-1.3.86.94-6.55,5.62Z"/>
  <path class="cls-1" d="M49.3,47.12c-3.26-1.73-4.78-4.15-4.54-7.27l.07-1.3v-18.79l-2.09-2.23,5.33-4.39,5.54,4.61-1.8,2.02v19.94c.24.96.91,1.73,2.02,2.3l1.3-.86.72.65-6.55,5.33ZM47.86,9.89h-.94l1.73-7.34h5.33l-6.12,7.34Z"/>
  <path class="cls-1" d="M72.85,43.73c-1.44,1.06-2.88,2.11-4.32,3.17-3.46-2.4-6.77-3.94-9.94-4.61,1.3-1.15,1.94-2.86,1.94-5.11v-18.36c1.63-.67,3.18-1.49,4.64-2.45,1.46-.96,2.87-2.04,4.21-3.24l7.27,4.54-3.1,4.39-6.48-3.67v20.45l6.34,3.17,3.1-2.3.72.79c-1.49,1.1-2.95,2.19-4.39,3.24Z"/>
  <path class="cls-1" d="M102.87,46.9c-1.78-1.3-2.93-3.65-3.46-7.06l-6.91,7.27c-4.13-2.3-7.61-3.89-10.44-4.75,1.2-1.2,1.8-2.93,1.8-5.18v-19.44h-3.67v-3.6h3.67v-6.41c0-1.58-.84-3.22-2.52-4.9,1.82.43,3.38,1.18,4.68,2.23l1.01-.07c2.16-2.35,4.49-3.53,6.98-3.53-2.26,1.39-3.38,3.55-3.38,6.48v13.46l9.36-8.21,6.55,6.91c-.67.53-1.56,1.3-2.66,2.3-1.11,1.01-2.42,2.28-3.96,3.82,1.92,1.39,3.26,3.12,4.03,5.18.19.38.4,1.02.61,1.91.22.89.47,2,.76,3.35.43,2.16,1.06,3.79,1.87,4.9l1.37-.72.86.94-6.55,5.11ZM96.24,18.53l-5.69,5.18v8.28l10.15-8.71-4.46-4.75ZM94.8,30.56l-4.25,3.38v5.98l4.32,2.23,4.18-4.32c-.34-2.74-1.75-5.16-4.25-7.27Z"/>
</svg>